<mxfile host="app.diagrams.net" modified="2023-09-24T12:06:17.997Z" agent="Mozilla/5.0 (Windows NT 10.0; Win64; x64) AppleWebKit/537.36 (KHTML, like Gecko) Chrome/117.0.0.0 Safari/537.36" etag="O3jav7w31rlfTlPT5laq" version="21.8.1" type="device">
  <diagram name="Page-1" id="ff44883e-f642-bcb2-894b-16b3d25a3f0b">
    <mxGraphModel dx="1860" dy="957" grid="1" gridSize="10" guides="1" tooltips="1" connect="1" arrows="1" fold="1" page="1" pageScale="1.5" pageWidth="1169" pageHeight="826" background="none" math="0" shadow="0">
      <root>
        <mxCell id="0" style=";html=1;" />
        <mxCell id="1" style=";html=1;" parent="0" />
        <mxCell id="i1qR030Ng2jJwy4FZJ-T-1" value="" style="endArrow=none;html=1;rounded=0;" edge="1" parent="1">
          <mxGeometry width="50" height="50" relative="1" as="geometry">
            <mxPoint x="20" y="621" as="sourcePoint" />
            <mxPoint x="20" y="401" as="targetPoint" />
          </mxGeometry>
        </mxCell>
        <mxCell id="i1qR030Ng2jJwy4FZJ-T-2" value="" style="endArrow=none;html=1;rounded=0;" edge="1" parent="1">
          <mxGeometry width="50" height="50" relative="1" as="geometry">
            <mxPoint x="20" y="401" as="sourcePoint" />
            <mxPoint x="240" y="401" as="targetPoint" />
          </mxGeometry>
        </mxCell>
        <mxCell id="i1qR030Ng2jJwy4FZJ-T-3" value="" style="endArrow=none;html=1;rounded=0;" edge="1" parent="1">
          <mxGeometry width="50" height="50" relative="1" as="geometry">
            <mxPoint x="240" y="621" as="sourcePoint" />
            <mxPoint x="240" y="401" as="targetPoint" />
            <Array as="points" />
          </mxGeometry>
        </mxCell>
        <mxCell id="i1qR030Ng2jJwy4FZJ-T-4" value="" style="endArrow=none;html=1;rounded=0;" edge="1" parent="1">
          <mxGeometry width="50" height="50" relative="1" as="geometry">
            <mxPoint x="20" y="621" as="sourcePoint" />
            <mxPoint x="240" y="621" as="targetPoint" />
          </mxGeometry>
        </mxCell>
        <mxCell id="i1qR030Ng2jJwy4FZJ-T-6" value="" style="endArrow=none;html=1;rounded=0;" edge="1" parent="1">
          <mxGeometry width="50" height="50" relative="1" as="geometry">
            <mxPoint x="20" y="481" as="sourcePoint" />
            <mxPoint x="240" y="481" as="targetPoint" />
          </mxGeometry>
        </mxCell>
        <mxCell id="i1qR030Ng2jJwy4FZJ-T-7" value="" style="endArrow=none;html=1;rounded=0;" edge="1" parent="1">
          <mxGeometry width="50" height="50" relative="1" as="geometry">
            <mxPoint x="20" y="551" as="sourcePoint" />
            <mxPoint x="240" y="551" as="targetPoint" />
          </mxGeometry>
        </mxCell>
        <mxCell id="i1qR030Ng2jJwy4FZJ-T-8" value="" style="endArrow=none;html=1;rounded=0;" edge="1" parent="1">
          <mxGeometry width="50" height="50" relative="1" as="geometry">
            <mxPoint x="170" y="481" as="sourcePoint" />
            <mxPoint x="170" y="401" as="targetPoint" />
          </mxGeometry>
        </mxCell>
        <mxCell id="i1qR030Ng2jJwy4FZJ-T-9" value="" style="endArrow=none;html=1;rounded=0;" edge="1" parent="1">
          <mxGeometry width="50" height="50" relative="1" as="geometry">
            <mxPoint x="90" y="481" as="sourcePoint" />
            <mxPoint x="90" y="401" as="targetPoint" />
          </mxGeometry>
        </mxCell>
        <mxCell id="i1qR030Ng2jJwy4FZJ-T-10" value="" style="endArrow=none;html=1;rounded=0;" edge="1" parent="1">
          <mxGeometry width="50" height="50" relative="1" as="geometry">
            <mxPoint x="90" y="621" as="sourcePoint" />
            <mxPoint x="90" y="551" as="targetPoint" />
          </mxGeometry>
        </mxCell>
        <mxCell id="i1qR030Ng2jJwy4FZJ-T-11" value="" style="endArrow=none;html=1;rounded=0;" edge="1" parent="1">
          <mxGeometry width="50" height="50" relative="1" as="geometry">
            <mxPoint x="170" y="621" as="sourcePoint" />
            <mxPoint x="170" y="551" as="targetPoint" />
            <Array as="points">
              <mxPoint x="170" y="581" />
            </Array>
          </mxGeometry>
        </mxCell>
        <mxCell id="i1qR030Ng2jJwy4FZJ-T-12" value="&lt;font style=&quot;font-size: 18px;&quot;&gt;A. Project Initiation&lt;/font&gt;" style="text;html=1;align=center;verticalAlign=middle;resizable=0;points=[];autosize=1;strokeColor=none;fillColor=none;" vertex="1" parent="1">
          <mxGeometry x="40" y="496" width="170" height="40" as="geometry" />
        </mxCell>
        <mxCell id="i1qR030Ng2jJwy4FZJ-T-129" value="&lt;font style=&quot;font-size: 22px;&quot;&gt;0&lt;/font&gt;" style="text;html=1;align=center;verticalAlign=middle;resizable=0;points=[];autosize=1;strokeColor=none;fillColor=none;" vertex="1" parent="1">
          <mxGeometry x="40" y="426" width="40" height="40" as="geometry" />
        </mxCell>
        <mxCell id="i1qR030Ng2jJwy4FZJ-T-130" value="&lt;span style=&quot;font-size: 22px;&quot;&gt;1&lt;/span&gt;" style="text;html=1;align=center;verticalAlign=middle;resizable=0;points=[];autosize=1;strokeColor=none;fillColor=none;" vertex="1" parent="1">
          <mxGeometry x="105" y="426" width="40" height="40" as="geometry" />
        </mxCell>
        <mxCell id="i1qR030Ng2jJwy4FZJ-T-131" value="&lt;span style=&quot;font-size: 22px;&quot;&gt;1&lt;/span&gt;" style="text;html=1;align=center;verticalAlign=middle;resizable=0;points=[];autosize=1;strokeColor=none;fillColor=none;" vertex="1" parent="1">
          <mxGeometry x="180" y="431" width="40" height="40" as="geometry" />
        </mxCell>
        <mxCell id="i1qR030Ng2jJwy4FZJ-T-132" value="&lt;span style=&quot;font-size: 22px;&quot;&gt;1&lt;/span&gt;" style="text;html=1;align=center;verticalAlign=middle;resizable=0;points=[];autosize=1;strokeColor=none;fillColor=none;" vertex="1" parent="1">
          <mxGeometry x="180" y="574" width="40" height="40" as="geometry" />
        </mxCell>
        <mxCell id="i1qR030Ng2jJwy4FZJ-T-133" value="&lt;font style=&quot;font-size: 22px;&quot;&gt;0&lt;/font&gt;" style="text;html=1;align=center;verticalAlign=middle;resizable=0;points=[];autosize=1;strokeColor=none;fillColor=none;" vertex="1" parent="1">
          <mxGeometry x="110" y="574" width="40" height="40" as="geometry" />
        </mxCell>
        <mxCell id="i1qR030Ng2jJwy4FZJ-T-134" value="&lt;font style=&quot;font-size: 22px;&quot;&gt;0&lt;/font&gt;" style="text;html=1;align=center;verticalAlign=middle;resizable=0;points=[];autosize=1;strokeColor=none;fillColor=none;" vertex="1" parent="1">
          <mxGeometry x="40" y="574" width="40" height="40" as="geometry" />
        </mxCell>
        <mxCell id="i1qR030Ng2jJwy4FZJ-T-135" value="" style="endArrow=none;html=1;rounded=0;" edge="1" parent="1">
          <mxGeometry width="50" height="50" relative="1" as="geometry">
            <mxPoint x="363.5" y="279" as="sourcePoint" />
            <mxPoint x="363.5" y="59" as="targetPoint" />
          </mxGeometry>
        </mxCell>
        <mxCell id="i1qR030Ng2jJwy4FZJ-T-136" value="" style="endArrow=none;html=1;rounded=0;" edge="1" parent="1">
          <mxGeometry width="50" height="50" relative="1" as="geometry">
            <mxPoint x="363.5" y="59" as="sourcePoint" />
            <mxPoint x="583.5" y="59" as="targetPoint" />
          </mxGeometry>
        </mxCell>
        <mxCell id="i1qR030Ng2jJwy4FZJ-T-137" value="" style="endArrow=none;html=1;rounded=0;" edge="1" parent="1">
          <mxGeometry width="50" height="50" relative="1" as="geometry">
            <mxPoint x="583.5" y="279" as="sourcePoint" />
            <mxPoint x="583.5" y="59" as="targetPoint" />
            <Array as="points" />
          </mxGeometry>
        </mxCell>
        <mxCell id="i1qR030Ng2jJwy4FZJ-T-138" value="" style="endArrow=none;html=1;rounded=0;" edge="1" parent="1">
          <mxGeometry width="50" height="50" relative="1" as="geometry">
            <mxPoint x="363.5" y="279" as="sourcePoint" />
            <mxPoint x="583.5" y="279" as="targetPoint" />
          </mxGeometry>
        </mxCell>
        <mxCell id="i1qR030Ng2jJwy4FZJ-T-139" value="" style="endArrow=none;html=1;rounded=0;" edge="1" parent="1">
          <mxGeometry width="50" height="50" relative="1" as="geometry">
            <mxPoint x="363.5" y="139" as="sourcePoint" />
            <mxPoint x="583.5" y="139" as="targetPoint" />
          </mxGeometry>
        </mxCell>
        <mxCell id="i1qR030Ng2jJwy4FZJ-T-140" value="" style="endArrow=none;html=1;rounded=0;" edge="1" parent="1">
          <mxGeometry width="50" height="50" relative="1" as="geometry">
            <mxPoint x="363.5" y="209" as="sourcePoint" />
            <mxPoint x="583.5" y="209" as="targetPoint" />
          </mxGeometry>
        </mxCell>
        <mxCell id="i1qR030Ng2jJwy4FZJ-T-141" value="" style="endArrow=none;html=1;rounded=0;" edge="1" parent="1">
          <mxGeometry width="50" height="50" relative="1" as="geometry">
            <mxPoint x="513.5" y="139" as="sourcePoint" />
            <mxPoint x="513.5" y="59" as="targetPoint" />
          </mxGeometry>
        </mxCell>
        <mxCell id="i1qR030Ng2jJwy4FZJ-T-142" value="" style="endArrow=none;html=1;rounded=0;" edge="1" parent="1">
          <mxGeometry width="50" height="50" relative="1" as="geometry">
            <mxPoint x="433.5" y="139" as="sourcePoint" />
            <mxPoint x="433.5" y="59" as="targetPoint" />
          </mxGeometry>
        </mxCell>
        <mxCell id="i1qR030Ng2jJwy4FZJ-T-143" value="" style="endArrow=none;html=1;rounded=0;" edge="1" parent="1">
          <mxGeometry width="50" height="50" relative="1" as="geometry">
            <mxPoint x="433.5" y="279" as="sourcePoint" />
            <mxPoint x="433.5" y="209" as="targetPoint" />
          </mxGeometry>
        </mxCell>
        <mxCell id="i1qR030Ng2jJwy4FZJ-T-144" value="" style="endArrow=none;html=1;rounded=0;" edge="1" parent="1">
          <mxGeometry width="50" height="50" relative="1" as="geometry">
            <mxPoint x="513.5" y="279" as="sourcePoint" />
            <mxPoint x="513.5" y="209" as="targetPoint" />
            <Array as="points">
              <mxPoint x="513.5" y="239" />
            </Array>
          </mxGeometry>
        </mxCell>
        <mxCell id="i1qR030Ng2jJwy4FZJ-T-145" value="&lt;span style=&quot;font-size: 18px;&quot;&gt;B. Requirement Analysis&lt;/span&gt;" style="text;html=1;align=center;verticalAlign=middle;resizable=0;points=[];autosize=1;strokeColor=none;fillColor=none;" vertex="1" parent="1">
          <mxGeometry x="358.5" y="154" width="220" height="40" as="geometry" />
        </mxCell>
        <mxCell id="i1qR030Ng2jJwy4FZJ-T-146" value="&lt;span style=&quot;font-size: 22px;&quot;&gt;1&lt;/span&gt;" style="text;html=1;align=center;verticalAlign=middle;resizable=0;points=[];autosize=1;strokeColor=none;fillColor=none;" vertex="1" parent="1">
          <mxGeometry x="378.5" y="89" width="40" height="40" as="geometry" />
        </mxCell>
        <mxCell id="i1qR030Ng2jJwy4FZJ-T-147" value="&lt;span style=&quot;font-size: 22px;&quot;&gt;13&lt;/span&gt;" style="text;html=1;align=center;verticalAlign=middle;resizable=0;points=[];autosize=1;strokeColor=none;fillColor=none;" vertex="1" parent="1">
          <mxGeometry x="453.5" y="84" width="50" height="40" as="geometry" />
        </mxCell>
        <mxCell id="i1qR030Ng2jJwy4FZJ-T-148" value="&lt;span style=&quot;font-size: 22px;&quot;&gt;14&lt;/span&gt;" style="text;html=1;align=center;verticalAlign=middle;resizable=0;points=[];autosize=1;strokeColor=none;fillColor=none;" vertex="1" parent="1">
          <mxGeometry x="518.5" y="84" width="50" height="40" as="geometry" />
        </mxCell>
        <mxCell id="i1qR030Ng2jJwy4FZJ-T-149" value="&lt;span style=&quot;font-size: 22px;&quot;&gt;14&lt;/span&gt;" style="text;html=1;align=center;verticalAlign=middle;resizable=0;points=[];autosize=1;strokeColor=none;fillColor=none;" vertex="1" parent="1">
          <mxGeometry x="518.5" y="232" width="50" height="40" as="geometry" />
        </mxCell>
        <mxCell id="i1qR030Ng2jJwy4FZJ-T-150" value="&lt;font style=&quot;font-size: 22px;&quot;&gt;0&lt;/font&gt;" style="text;html=1;align=center;verticalAlign=middle;resizable=0;points=[];autosize=1;strokeColor=none;fillColor=none;" vertex="1" parent="1">
          <mxGeometry x="453.5" y="232" width="40" height="40" as="geometry" />
        </mxCell>
        <mxCell id="i1qR030Ng2jJwy4FZJ-T-151" value="&lt;span style=&quot;font-size: 22px;&quot;&gt;1&lt;/span&gt;" style="text;html=1;align=center;verticalAlign=middle;resizable=0;points=[];autosize=1;strokeColor=none;fillColor=none;" vertex="1" parent="1">
          <mxGeometry x="383.5" y="232" width="40" height="40" as="geometry" />
        </mxCell>
        <mxCell id="i1qR030Ng2jJwy4FZJ-T-170" value="" style="endArrow=none;html=1;rounded=0;" edge="1" parent="1">
          <mxGeometry width="50" height="50" relative="1" as="geometry">
            <mxPoint x="367" y="670" as="sourcePoint" />
            <mxPoint x="367" y="450" as="targetPoint" />
          </mxGeometry>
        </mxCell>
        <mxCell id="i1qR030Ng2jJwy4FZJ-T-171" value="" style="endArrow=none;html=1;rounded=0;" edge="1" parent="1">
          <mxGeometry width="50" height="50" relative="1" as="geometry">
            <mxPoint x="367" y="450" as="sourcePoint" />
            <mxPoint x="587" y="450" as="targetPoint" />
          </mxGeometry>
        </mxCell>
        <mxCell id="i1qR030Ng2jJwy4FZJ-T-172" value="" style="endArrow=none;html=1;rounded=0;" edge="1" parent="1">
          <mxGeometry width="50" height="50" relative="1" as="geometry">
            <mxPoint x="587" y="670" as="sourcePoint" />
            <mxPoint x="587" y="450" as="targetPoint" />
            <Array as="points" />
          </mxGeometry>
        </mxCell>
        <mxCell id="i1qR030Ng2jJwy4FZJ-T-173" value="" style="endArrow=none;html=1;rounded=0;" edge="1" parent="1">
          <mxGeometry width="50" height="50" relative="1" as="geometry">
            <mxPoint x="367" y="670" as="sourcePoint" />
            <mxPoint x="587" y="670" as="targetPoint" />
          </mxGeometry>
        </mxCell>
        <mxCell id="i1qR030Ng2jJwy4FZJ-T-174" value="" style="endArrow=none;html=1;rounded=0;" edge="1" parent="1">
          <mxGeometry width="50" height="50" relative="1" as="geometry">
            <mxPoint x="367" y="530" as="sourcePoint" />
            <mxPoint x="587" y="530" as="targetPoint" />
          </mxGeometry>
        </mxCell>
        <mxCell id="i1qR030Ng2jJwy4FZJ-T-175" value="" style="endArrow=none;html=1;rounded=0;" edge="1" parent="1">
          <mxGeometry width="50" height="50" relative="1" as="geometry">
            <mxPoint x="367" y="600" as="sourcePoint" />
            <mxPoint x="587" y="600" as="targetPoint" />
          </mxGeometry>
        </mxCell>
        <mxCell id="i1qR030Ng2jJwy4FZJ-T-176" value="" style="endArrow=none;html=1;rounded=0;" edge="1" parent="1">
          <mxGeometry width="50" height="50" relative="1" as="geometry">
            <mxPoint x="517" y="530" as="sourcePoint" />
            <mxPoint x="517" y="450" as="targetPoint" />
          </mxGeometry>
        </mxCell>
        <mxCell id="i1qR030Ng2jJwy4FZJ-T-177" value="" style="endArrow=none;html=1;rounded=0;" edge="1" parent="1">
          <mxGeometry width="50" height="50" relative="1" as="geometry">
            <mxPoint x="437" y="530" as="sourcePoint" />
            <mxPoint x="437" y="450" as="targetPoint" />
          </mxGeometry>
        </mxCell>
        <mxCell id="i1qR030Ng2jJwy4FZJ-T-178" value="" style="endArrow=none;html=1;rounded=0;" edge="1" parent="1">
          <mxGeometry width="50" height="50" relative="1" as="geometry">
            <mxPoint x="437" y="670" as="sourcePoint" />
            <mxPoint x="437" y="600" as="targetPoint" />
          </mxGeometry>
        </mxCell>
        <mxCell id="i1qR030Ng2jJwy4FZJ-T-179" value="" style="endArrow=none;html=1;rounded=0;" edge="1" parent="1">
          <mxGeometry width="50" height="50" relative="1" as="geometry">
            <mxPoint x="517" y="670" as="sourcePoint" />
            <mxPoint x="517" y="600" as="targetPoint" />
            <Array as="points">
              <mxPoint x="517" y="630" />
            </Array>
          </mxGeometry>
        </mxCell>
        <mxCell id="i1qR030Ng2jJwy4FZJ-T-180" value="&lt;font style=&quot;font-size: 18px;&quot;&gt;C. Design&lt;/font&gt;" style="text;html=1;align=center;verticalAlign=middle;resizable=0;points=[];autosize=1;strokeColor=none;fillColor=none;" vertex="1" parent="1">
          <mxGeometry x="422" y="545" width="100" height="40" as="geometry" />
        </mxCell>
        <mxCell id="i1qR030Ng2jJwy4FZJ-T-181" value="&lt;font style=&quot;font-size: 22px;&quot;&gt;14&lt;/font&gt;" style="text;html=1;align=center;verticalAlign=middle;resizable=0;points=[];autosize=1;strokeColor=none;fillColor=none;" vertex="1" parent="1">
          <mxGeometry x="377" y="480" width="50" height="40" as="geometry" />
        </mxCell>
        <mxCell id="i1qR030Ng2jJwy4FZJ-T-182" value="&lt;span style=&quot;font-size: 22px;&quot;&gt;15&lt;/span&gt;" style="text;html=1;align=center;verticalAlign=middle;resizable=0;points=[];autosize=1;strokeColor=none;fillColor=none;" vertex="1" parent="1">
          <mxGeometry x="457" y="475" width="50" height="40" as="geometry" />
        </mxCell>
        <mxCell id="i1qR030Ng2jJwy4FZJ-T-183" value="&lt;span style=&quot;font-size: 22px;&quot;&gt;29&lt;/span&gt;" style="text;html=1;align=center;verticalAlign=middle;resizable=0;points=[];autosize=1;strokeColor=none;fillColor=none;" vertex="1" parent="1">
          <mxGeometry x="525" y="475" width="50" height="40" as="geometry" />
        </mxCell>
        <mxCell id="i1qR030Ng2jJwy4FZJ-T-184" value="&lt;span style=&quot;font-size: 22px;&quot;&gt;29&lt;/span&gt;" style="text;html=1;align=center;verticalAlign=middle;resizable=0;points=[];autosize=1;strokeColor=none;fillColor=none;" vertex="1" parent="1">
          <mxGeometry x="522" y="623" width="50" height="40" as="geometry" />
        </mxCell>
        <mxCell id="i1qR030Ng2jJwy4FZJ-T-185" value="&lt;font style=&quot;font-size: 22px;&quot;&gt;0&lt;/font&gt;" style="text;html=1;align=center;verticalAlign=middle;resizable=0;points=[];autosize=1;strokeColor=none;fillColor=none;" vertex="1" parent="1">
          <mxGeometry x="457" y="623" width="40" height="40" as="geometry" />
        </mxCell>
        <mxCell id="i1qR030Ng2jJwy4FZJ-T-186" value="&lt;span style=&quot;font-size: 22px;&quot;&gt;14&lt;/span&gt;" style="text;html=1;align=center;verticalAlign=middle;resizable=0;points=[];autosize=1;strokeColor=none;fillColor=none;" vertex="1" parent="1">
          <mxGeometry x="380" y="623" width="50" height="40" as="geometry" />
        </mxCell>
        <mxCell id="i1qR030Ng2jJwy4FZJ-T-187" value="" style="endArrow=none;html=1;rounded=0;" edge="1" parent="1">
          <mxGeometry width="50" height="50" relative="1" as="geometry">
            <mxPoint x="348" y="1084" as="sourcePoint" />
            <mxPoint x="348" y="864" as="targetPoint" />
          </mxGeometry>
        </mxCell>
        <mxCell id="i1qR030Ng2jJwy4FZJ-T-188" value="" style="endArrow=none;html=1;rounded=0;" edge="1" parent="1">
          <mxGeometry width="50" height="50" relative="1" as="geometry">
            <mxPoint x="348" y="864" as="sourcePoint" />
            <mxPoint x="568" y="864" as="targetPoint" />
          </mxGeometry>
        </mxCell>
        <mxCell id="i1qR030Ng2jJwy4FZJ-T-189" value="" style="endArrow=none;html=1;rounded=0;" edge="1" parent="1">
          <mxGeometry width="50" height="50" relative="1" as="geometry">
            <mxPoint x="568" y="1084" as="sourcePoint" />
            <mxPoint x="568" y="864" as="targetPoint" />
            <Array as="points" />
          </mxGeometry>
        </mxCell>
        <mxCell id="i1qR030Ng2jJwy4FZJ-T-190" value="" style="endArrow=none;html=1;rounded=0;" edge="1" parent="1">
          <mxGeometry width="50" height="50" relative="1" as="geometry">
            <mxPoint x="348" y="1084" as="sourcePoint" />
            <mxPoint x="568" y="1084" as="targetPoint" />
          </mxGeometry>
        </mxCell>
        <mxCell id="i1qR030Ng2jJwy4FZJ-T-191" value="" style="endArrow=none;html=1;rounded=0;" edge="1" parent="1">
          <mxGeometry width="50" height="50" relative="1" as="geometry">
            <mxPoint x="348" y="944" as="sourcePoint" />
            <mxPoint x="568" y="944" as="targetPoint" />
          </mxGeometry>
        </mxCell>
        <mxCell id="i1qR030Ng2jJwy4FZJ-T-192" value="" style="endArrow=none;html=1;rounded=0;" edge="1" parent="1">
          <mxGeometry width="50" height="50" relative="1" as="geometry">
            <mxPoint x="348" y="1014" as="sourcePoint" />
            <mxPoint x="568" y="1014" as="targetPoint" />
          </mxGeometry>
        </mxCell>
        <mxCell id="i1qR030Ng2jJwy4FZJ-T-193" value="" style="endArrow=none;html=1;rounded=0;" edge="1" parent="1">
          <mxGeometry width="50" height="50" relative="1" as="geometry">
            <mxPoint x="498" y="944" as="sourcePoint" />
            <mxPoint x="498" y="864" as="targetPoint" />
          </mxGeometry>
        </mxCell>
        <mxCell id="i1qR030Ng2jJwy4FZJ-T-194" value="" style="endArrow=none;html=1;rounded=0;" edge="1" parent="1">
          <mxGeometry width="50" height="50" relative="1" as="geometry">
            <mxPoint x="418" y="944" as="sourcePoint" />
            <mxPoint x="418" y="864" as="targetPoint" />
          </mxGeometry>
        </mxCell>
        <mxCell id="i1qR030Ng2jJwy4FZJ-T-195" value="" style="endArrow=none;html=1;rounded=0;" edge="1" parent="1">
          <mxGeometry width="50" height="50" relative="1" as="geometry">
            <mxPoint x="418" y="1084" as="sourcePoint" />
            <mxPoint x="418" y="1014" as="targetPoint" />
          </mxGeometry>
        </mxCell>
        <mxCell id="i1qR030Ng2jJwy4FZJ-T-196" value="" style="endArrow=none;html=1;rounded=0;" edge="1" parent="1">
          <mxGeometry width="50" height="50" relative="1" as="geometry">
            <mxPoint x="498" y="1084" as="sourcePoint" />
            <mxPoint x="498" y="1014" as="targetPoint" />
            <Array as="points">
              <mxPoint x="498" y="1044" />
            </Array>
          </mxGeometry>
        </mxCell>
        <mxCell id="i1qR030Ng2jJwy4FZJ-T-197" value="&lt;span style=&quot;font-size: 18px;&quot;&gt;D. Development&lt;/span&gt;" style="text;html=1;align=center;verticalAlign=middle;resizable=0;points=[];autosize=1;strokeColor=none;fillColor=none;" vertex="1" parent="1">
          <mxGeometry x="378" y="959" width="150" height="40" as="geometry" />
        </mxCell>
        <mxCell id="i1qR030Ng2jJwy4FZJ-T-198" value="&lt;span style=&quot;font-size: 22px;&quot;&gt;29&lt;/span&gt;" style="text;html=1;align=center;verticalAlign=middle;resizable=0;points=[];autosize=1;strokeColor=none;fillColor=none;" vertex="1" parent="1">
          <mxGeometry x="360" y="889" width="50" height="40" as="geometry" />
        </mxCell>
        <mxCell id="i1qR030Ng2jJwy4FZJ-T-199" value="&lt;span style=&quot;font-size: 22px;&quot;&gt;21&lt;/span&gt;" style="text;html=1;align=center;verticalAlign=middle;resizable=0;points=[];autosize=1;strokeColor=none;fillColor=none;" vertex="1" parent="1">
          <mxGeometry x="427" y="889" width="50" height="40" as="geometry" />
        </mxCell>
        <mxCell id="i1qR030Ng2jJwy4FZJ-T-200" value="&lt;span style=&quot;font-size: 22px;&quot;&gt;50&lt;/span&gt;" style="text;html=1;align=center;verticalAlign=middle;resizable=0;points=[];autosize=1;strokeColor=none;fillColor=none;" vertex="1" parent="1">
          <mxGeometry x="503.5" y="880" width="50" height="40" as="geometry" />
        </mxCell>
        <mxCell id="i1qR030Ng2jJwy4FZJ-T-201" value="&lt;font style=&quot;font-size: 22px;&quot;&gt;50&lt;/font&gt;" style="text;html=1;align=center;verticalAlign=middle;resizable=0;points=[];autosize=1;strokeColor=none;fillColor=none;" vertex="1" parent="1">
          <mxGeometry x="503" y="1037" width="50" height="40" as="geometry" />
        </mxCell>
        <mxCell id="i1qR030Ng2jJwy4FZJ-T-202" value="&lt;font style=&quot;font-size: 22px;&quot;&gt;0&lt;/font&gt;" style="text;html=1;align=center;verticalAlign=middle;resizable=0;points=[];autosize=1;strokeColor=none;fillColor=none;" vertex="1" parent="1">
          <mxGeometry x="438" y="1037" width="40" height="40" as="geometry" />
        </mxCell>
        <mxCell id="i1qR030Ng2jJwy4FZJ-T-203" value="&lt;font style=&quot;font-size: 22px;&quot;&gt;29&lt;/font&gt;" style="text;html=1;align=center;verticalAlign=middle;resizable=0;points=[];autosize=1;strokeColor=none;fillColor=none;" vertex="1" parent="1">
          <mxGeometry x="360" y="1037" width="50" height="40" as="geometry" />
        </mxCell>
        <mxCell id="i1qR030Ng2jJwy4FZJ-T-204" value="" style="endArrow=none;html=1;rounded=0;" edge="1" parent="1">
          <mxGeometry width="50" height="50" relative="1" as="geometry">
            <mxPoint x="751" y="1075" as="sourcePoint" />
            <mxPoint x="751" y="855.0000000000001" as="targetPoint" />
          </mxGeometry>
        </mxCell>
        <mxCell id="i1qR030Ng2jJwy4FZJ-T-205" value="" style="endArrow=none;html=1;rounded=0;" edge="1" parent="1">
          <mxGeometry width="50" height="50" relative="1" as="geometry">
            <mxPoint x="751" y="855.0000000000001" as="sourcePoint" />
            <mxPoint x="971" y="855.0000000000001" as="targetPoint" />
          </mxGeometry>
        </mxCell>
        <mxCell id="i1qR030Ng2jJwy4FZJ-T-206" value="" style="endArrow=none;html=1;rounded=0;" edge="1" parent="1">
          <mxGeometry width="50" height="50" relative="1" as="geometry">
            <mxPoint x="971" y="1075" as="sourcePoint" />
            <mxPoint x="971" y="855.0000000000001" as="targetPoint" />
            <Array as="points" />
          </mxGeometry>
        </mxCell>
        <mxCell id="i1qR030Ng2jJwy4FZJ-T-207" value="" style="endArrow=none;html=1;rounded=0;" edge="1" parent="1">
          <mxGeometry width="50" height="50" relative="1" as="geometry">
            <mxPoint x="751" y="1075" as="sourcePoint" />
            <mxPoint x="971" y="1075" as="targetPoint" />
          </mxGeometry>
        </mxCell>
        <mxCell id="i1qR030Ng2jJwy4FZJ-T-208" value="" style="endArrow=none;html=1;rounded=0;" edge="1" parent="1">
          <mxGeometry width="50" height="50" relative="1" as="geometry">
            <mxPoint x="751" y="935.0000000000001" as="sourcePoint" />
            <mxPoint x="971" y="935.0000000000001" as="targetPoint" />
          </mxGeometry>
        </mxCell>
        <mxCell id="i1qR030Ng2jJwy4FZJ-T-209" value="" style="endArrow=none;html=1;rounded=0;" edge="1" parent="1">
          <mxGeometry width="50" height="50" relative="1" as="geometry">
            <mxPoint x="751" y="1005.0000000000001" as="sourcePoint" />
            <mxPoint x="971" y="1005.0000000000001" as="targetPoint" />
          </mxGeometry>
        </mxCell>
        <mxCell id="i1qR030Ng2jJwy4FZJ-T-210" value="" style="endArrow=none;html=1;rounded=0;" edge="1" parent="1">
          <mxGeometry width="50" height="50" relative="1" as="geometry">
            <mxPoint x="901" y="935.0000000000001" as="sourcePoint" />
            <mxPoint x="901" y="855.0000000000001" as="targetPoint" />
          </mxGeometry>
        </mxCell>
        <mxCell id="i1qR030Ng2jJwy4FZJ-T-211" value="" style="endArrow=none;html=1;rounded=0;" edge="1" parent="1">
          <mxGeometry width="50" height="50" relative="1" as="geometry">
            <mxPoint x="821" y="935.0000000000001" as="sourcePoint" />
            <mxPoint x="821" y="855.0000000000001" as="targetPoint" />
          </mxGeometry>
        </mxCell>
        <mxCell id="i1qR030Ng2jJwy4FZJ-T-212" value="" style="endArrow=none;html=1;rounded=0;" edge="1" parent="1">
          <mxGeometry width="50" height="50" relative="1" as="geometry">
            <mxPoint x="821" y="1075" as="sourcePoint" />
            <mxPoint x="821" y="1005.0000000000001" as="targetPoint" />
          </mxGeometry>
        </mxCell>
        <mxCell id="i1qR030Ng2jJwy4FZJ-T-213" value="" style="endArrow=none;html=1;rounded=0;" edge="1" parent="1">
          <mxGeometry width="50" height="50" relative="1" as="geometry">
            <mxPoint x="901" y="1075" as="sourcePoint" />
            <mxPoint x="901" y="1005.0000000000001" as="targetPoint" />
            <Array as="points">
              <mxPoint x="901" y="1035" />
            </Array>
          </mxGeometry>
        </mxCell>
        <mxCell id="i1qR030Ng2jJwy4FZJ-T-214" value="&lt;span style=&quot;font-size: 18px;&quot;&gt;E. Testing&lt;/span&gt;" style="text;html=1;align=center;verticalAlign=middle;resizable=0;points=[];autosize=1;strokeColor=none;fillColor=none;" vertex="1" parent="1">
          <mxGeometry x="806" y="950.0000000000001" width="100" height="40" as="geometry" />
        </mxCell>
        <mxCell id="i1qR030Ng2jJwy4FZJ-T-215" value="&lt;span style=&quot;font-size: 22px;&quot;&gt;50&lt;/span&gt;" style="text;html=1;align=center;verticalAlign=middle;resizable=0;points=[];autosize=1;strokeColor=none;fillColor=none;" vertex="1" parent="1">
          <mxGeometry x="766" y="880.0000000000001" width="50" height="40" as="geometry" />
        </mxCell>
        <mxCell id="i1qR030Ng2jJwy4FZJ-T-216" value="&lt;span style=&quot;font-size: 22px;&quot;&gt;14&lt;/span&gt;" style="text;html=1;align=center;verticalAlign=middle;resizable=0;points=[];autosize=1;strokeColor=none;fillColor=none;" vertex="1" parent="1">
          <mxGeometry x="841" y="880.0000000000001" width="50" height="40" as="geometry" />
        </mxCell>
        <mxCell id="i1qR030Ng2jJwy4FZJ-T-217" value="&lt;font style=&quot;font-size: 22px;&quot;&gt;64&lt;/font&gt;" style="text;html=1;align=center;verticalAlign=middle;resizable=0;points=[];autosize=1;strokeColor=none;fillColor=none;" vertex="1" parent="1">
          <mxGeometry x="911" y="880.0000000000001" width="50" height="40" as="geometry" />
        </mxCell>
        <mxCell id="i1qR030Ng2jJwy4FZJ-T-218" value="&lt;span style=&quot;font-size: 22px;&quot;&gt;64&lt;/span&gt;" style="text;html=1;align=center;verticalAlign=middle;resizable=0;points=[];autosize=1;strokeColor=none;fillColor=none;" vertex="1" parent="1">
          <mxGeometry x="906" y="1028" width="50" height="40" as="geometry" />
        </mxCell>
        <mxCell id="i1qR030Ng2jJwy4FZJ-T-219" value="&lt;font style=&quot;font-size: 22px;&quot;&gt;0&lt;/font&gt;" style="text;html=1;align=center;verticalAlign=middle;resizable=0;points=[];autosize=1;strokeColor=none;fillColor=none;" vertex="1" parent="1">
          <mxGeometry x="841" y="1028" width="40" height="40" as="geometry" />
        </mxCell>
        <mxCell id="i1qR030Ng2jJwy4FZJ-T-220" value="&lt;font style=&quot;font-size: 22px;&quot;&gt;50&lt;/font&gt;" style="text;html=1;align=center;verticalAlign=middle;resizable=0;points=[];autosize=1;strokeColor=none;fillColor=none;" vertex="1" parent="1">
          <mxGeometry x="761" y="1028" width="50" height="40" as="geometry" />
        </mxCell>
        <mxCell id="i1qR030Ng2jJwy4FZJ-T-221" value="" style="endArrow=none;html=1;rounded=0;" edge="1" parent="1">
          <mxGeometry width="50" height="50" relative="1" as="geometry">
            <mxPoint x="752" y="670" as="sourcePoint" />
            <mxPoint x="752" y="450" as="targetPoint" />
          </mxGeometry>
        </mxCell>
        <mxCell id="i1qR030Ng2jJwy4FZJ-T-222" value="" style="endArrow=none;html=1;rounded=0;" edge="1" parent="1">
          <mxGeometry width="50" height="50" relative="1" as="geometry">
            <mxPoint x="752" y="450" as="sourcePoint" />
            <mxPoint x="972" y="450" as="targetPoint" />
          </mxGeometry>
        </mxCell>
        <mxCell id="i1qR030Ng2jJwy4FZJ-T-223" value="" style="endArrow=none;html=1;rounded=0;" edge="1" parent="1">
          <mxGeometry width="50" height="50" relative="1" as="geometry">
            <mxPoint x="972" y="670" as="sourcePoint" />
            <mxPoint x="972" y="450" as="targetPoint" />
            <Array as="points" />
          </mxGeometry>
        </mxCell>
        <mxCell id="i1qR030Ng2jJwy4FZJ-T-224" value="" style="endArrow=none;html=1;rounded=0;" edge="1" parent="1">
          <mxGeometry width="50" height="50" relative="1" as="geometry">
            <mxPoint x="752" y="670" as="sourcePoint" />
            <mxPoint x="972" y="670" as="targetPoint" />
          </mxGeometry>
        </mxCell>
        <mxCell id="i1qR030Ng2jJwy4FZJ-T-225" value="" style="endArrow=none;html=1;rounded=0;" edge="1" parent="1">
          <mxGeometry width="50" height="50" relative="1" as="geometry">
            <mxPoint x="752" y="530" as="sourcePoint" />
            <mxPoint x="972" y="530" as="targetPoint" />
          </mxGeometry>
        </mxCell>
        <mxCell id="i1qR030Ng2jJwy4FZJ-T-226" value="" style="endArrow=none;html=1;rounded=0;" edge="1" parent="1">
          <mxGeometry width="50" height="50" relative="1" as="geometry">
            <mxPoint x="752" y="600" as="sourcePoint" />
            <mxPoint x="972" y="600" as="targetPoint" />
          </mxGeometry>
        </mxCell>
        <mxCell id="i1qR030Ng2jJwy4FZJ-T-227" value="" style="endArrow=none;html=1;rounded=0;" edge="1" parent="1">
          <mxGeometry width="50" height="50" relative="1" as="geometry">
            <mxPoint x="902" y="530" as="sourcePoint" />
            <mxPoint x="902" y="450" as="targetPoint" />
          </mxGeometry>
        </mxCell>
        <mxCell id="i1qR030Ng2jJwy4FZJ-T-228" value="" style="endArrow=none;html=1;rounded=0;" edge="1" parent="1">
          <mxGeometry width="50" height="50" relative="1" as="geometry">
            <mxPoint x="822" y="530" as="sourcePoint" />
            <mxPoint x="822" y="450" as="targetPoint" />
          </mxGeometry>
        </mxCell>
        <mxCell id="i1qR030Ng2jJwy4FZJ-T-229" value="" style="endArrow=none;html=1;rounded=0;" edge="1" parent="1">
          <mxGeometry width="50" height="50" relative="1" as="geometry">
            <mxPoint x="822" y="670" as="sourcePoint" />
            <mxPoint x="822" y="600" as="targetPoint" />
          </mxGeometry>
        </mxCell>
        <mxCell id="i1qR030Ng2jJwy4FZJ-T-230" value="" style="endArrow=none;html=1;rounded=0;" edge="1" parent="1">
          <mxGeometry width="50" height="50" relative="1" as="geometry">
            <mxPoint x="902" y="670" as="sourcePoint" />
            <mxPoint x="902" y="600" as="targetPoint" />
            <Array as="points">
              <mxPoint x="902" y="630" />
            </Array>
          </mxGeometry>
        </mxCell>
        <mxCell id="i1qR030Ng2jJwy4FZJ-T-231" value="&lt;span style=&quot;font-size: 18px;&quot;&gt;F. Deployment&lt;/span&gt;" style="text;html=1;align=center;verticalAlign=middle;resizable=0;points=[];autosize=1;strokeColor=none;fillColor=none;" vertex="1" parent="1">
          <mxGeometry x="787" y="545" width="140" height="40" as="geometry" />
        </mxCell>
        <mxCell id="i1qR030Ng2jJwy4FZJ-T-232" value="&lt;font style=&quot;font-size: 22px;&quot;&gt;64&lt;/font&gt;" style="text;html=1;align=center;verticalAlign=middle;resizable=0;points=[];autosize=1;strokeColor=none;fillColor=none;" vertex="1" parent="1">
          <mxGeometry x="762" y="480" width="50" height="40" as="geometry" />
        </mxCell>
        <mxCell id="i1qR030Ng2jJwy4FZJ-T-233" value="&lt;span style=&quot;font-size: 22px;&quot;&gt;7&lt;/span&gt;" style="text;html=1;align=center;verticalAlign=middle;resizable=0;points=[];autosize=1;strokeColor=none;fillColor=none;" vertex="1" parent="1">
          <mxGeometry x="847" y="475" width="40" height="40" as="geometry" />
        </mxCell>
        <mxCell id="i1qR030Ng2jJwy4FZJ-T-234" value="&lt;span style=&quot;font-size: 22px;&quot;&gt;71&lt;/span&gt;" style="text;html=1;align=center;verticalAlign=middle;resizable=0;points=[];autosize=1;strokeColor=none;fillColor=none;" vertex="1" parent="1">
          <mxGeometry x="911" y="474" width="50" height="40" as="geometry" />
        </mxCell>
        <mxCell id="i1qR030Ng2jJwy4FZJ-T-235" value="&lt;span style=&quot;font-size: 22px;&quot;&gt;71&lt;/span&gt;" style="text;html=1;align=center;verticalAlign=middle;resizable=0;points=[];autosize=1;strokeColor=none;fillColor=none;" vertex="1" parent="1">
          <mxGeometry x="907" y="623" width="50" height="40" as="geometry" />
        </mxCell>
        <mxCell id="i1qR030Ng2jJwy4FZJ-T-236" value="&lt;font style=&quot;font-size: 22px;&quot;&gt;0&lt;/font&gt;" style="text;html=1;align=center;verticalAlign=middle;resizable=0;points=[];autosize=1;strokeColor=none;fillColor=none;" vertex="1" parent="1">
          <mxGeometry x="842" y="623" width="40" height="40" as="geometry" />
        </mxCell>
        <mxCell id="i1qR030Ng2jJwy4FZJ-T-237" value="&lt;span style=&quot;font-size: 22px;&quot;&gt;64&lt;/span&gt;" style="text;html=1;align=center;verticalAlign=middle;resizable=0;points=[];autosize=1;strokeColor=none;fillColor=none;" vertex="1" parent="1">
          <mxGeometry x="762" y="623" width="50" height="40" as="geometry" />
        </mxCell>
        <mxCell id="i1qR030Ng2jJwy4FZJ-T-238" value="" style="endArrow=none;html=1;rounded=0;" edge="1" parent="1">
          <mxGeometry width="50" height="50" relative="1" as="geometry">
            <mxPoint x="756" y="275" as="sourcePoint" />
            <mxPoint x="756" y="55" as="targetPoint" />
          </mxGeometry>
        </mxCell>
        <mxCell id="i1qR030Ng2jJwy4FZJ-T-239" value="" style="endArrow=none;html=1;rounded=0;" edge="1" parent="1">
          <mxGeometry width="50" height="50" relative="1" as="geometry">
            <mxPoint x="756" y="55" as="sourcePoint" />
            <mxPoint x="976" y="55" as="targetPoint" />
          </mxGeometry>
        </mxCell>
        <mxCell id="i1qR030Ng2jJwy4FZJ-T-240" value="" style="endArrow=none;html=1;rounded=0;" edge="1" parent="1">
          <mxGeometry width="50" height="50" relative="1" as="geometry">
            <mxPoint x="976" y="275" as="sourcePoint" />
            <mxPoint x="976" y="55" as="targetPoint" />
            <Array as="points" />
          </mxGeometry>
        </mxCell>
        <mxCell id="i1qR030Ng2jJwy4FZJ-T-241" value="" style="endArrow=none;html=1;rounded=0;" edge="1" parent="1">
          <mxGeometry width="50" height="50" relative="1" as="geometry">
            <mxPoint x="756" y="275" as="sourcePoint" />
            <mxPoint x="976" y="275" as="targetPoint" />
          </mxGeometry>
        </mxCell>
        <mxCell id="i1qR030Ng2jJwy4FZJ-T-242" value="" style="endArrow=none;html=1;rounded=0;" edge="1" parent="1">
          <mxGeometry width="50" height="50" relative="1" as="geometry">
            <mxPoint x="756" y="135" as="sourcePoint" />
            <mxPoint x="976" y="135" as="targetPoint" />
          </mxGeometry>
        </mxCell>
        <mxCell id="i1qR030Ng2jJwy4FZJ-T-243" value="" style="endArrow=none;html=1;rounded=0;" edge="1" parent="1">
          <mxGeometry width="50" height="50" relative="1" as="geometry">
            <mxPoint x="756" y="205" as="sourcePoint" />
            <mxPoint x="976" y="205" as="targetPoint" />
          </mxGeometry>
        </mxCell>
        <mxCell id="i1qR030Ng2jJwy4FZJ-T-244" value="" style="endArrow=none;html=1;rounded=0;" edge="1" parent="1">
          <mxGeometry width="50" height="50" relative="1" as="geometry">
            <mxPoint x="906" y="135" as="sourcePoint" />
            <mxPoint x="906" y="55" as="targetPoint" />
          </mxGeometry>
        </mxCell>
        <mxCell id="i1qR030Ng2jJwy4FZJ-T-245" value="" style="endArrow=none;html=1;rounded=0;" edge="1" parent="1">
          <mxGeometry width="50" height="50" relative="1" as="geometry">
            <mxPoint x="826" y="135" as="sourcePoint" />
            <mxPoint x="826" y="55" as="targetPoint" />
          </mxGeometry>
        </mxCell>
        <mxCell id="i1qR030Ng2jJwy4FZJ-T-246" value="" style="endArrow=none;html=1;rounded=0;" edge="1" parent="1">
          <mxGeometry width="50" height="50" relative="1" as="geometry">
            <mxPoint x="826" y="275" as="sourcePoint" />
            <mxPoint x="826" y="205" as="targetPoint" />
          </mxGeometry>
        </mxCell>
        <mxCell id="i1qR030Ng2jJwy4FZJ-T-247" value="" style="endArrow=none;html=1;rounded=0;" edge="1" parent="1">
          <mxGeometry width="50" height="50" relative="1" as="geometry">
            <mxPoint x="906" y="275" as="sourcePoint" />
            <mxPoint x="906" y="205" as="targetPoint" />
            <Array as="points">
              <mxPoint x="906" y="235" />
            </Array>
          </mxGeometry>
        </mxCell>
        <mxCell id="i1qR030Ng2jJwy4FZJ-T-248" value="&lt;span style=&quot;font-size: 18px;&quot;&gt;G. Training&lt;/span&gt;" style="text;html=1;align=center;verticalAlign=middle;resizable=0;points=[];autosize=1;strokeColor=none;fillColor=none;" vertex="1" parent="1">
          <mxGeometry x="806" y="150" width="110" height="40" as="geometry" />
        </mxCell>
        <mxCell id="i1qR030Ng2jJwy4FZJ-T-249" value="&lt;span style=&quot;font-size: 22px;&quot;&gt;71&lt;/span&gt;" style="text;html=1;align=center;verticalAlign=middle;resizable=0;points=[];autosize=1;strokeColor=none;fillColor=none;" vertex="1" parent="1">
          <mxGeometry x="767" y="80" width="50" height="40" as="geometry" />
        </mxCell>
        <mxCell id="i1qR030Ng2jJwy4FZJ-T-250" value="&lt;span style=&quot;font-size: 22px;&quot;&gt;14&lt;/span&gt;" style="text;html=1;align=center;verticalAlign=middle;resizable=0;points=[];autosize=1;strokeColor=none;fillColor=none;" vertex="1" parent="1">
          <mxGeometry x="846" y="80" width="50" height="40" as="geometry" />
        </mxCell>
        <mxCell id="i1qR030Ng2jJwy4FZJ-T-251" value="&lt;span style=&quot;font-size: 22px;&quot;&gt;85&lt;/span&gt;" style="text;html=1;align=center;verticalAlign=middle;resizable=0;points=[];autosize=1;strokeColor=none;fillColor=none;" vertex="1" parent="1">
          <mxGeometry x="914" y="80" width="50" height="40" as="geometry" />
        </mxCell>
        <mxCell id="i1qR030Ng2jJwy4FZJ-T-252" value="&lt;span style=&quot;font-size: 22px;&quot;&gt;85&lt;/span&gt;" style="text;html=1;align=center;verticalAlign=middle;resizable=0;points=[];autosize=1;strokeColor=none;fillColor=none;" vertex="1" parent="1">
          <mxGeometry x="911" y="228" width="50" height="40" as="geometry" />
        </mxCell>
        <mxCell id="i1qR030Ng2jJwy4FZJ-T-253" value="&lt;font style=&quot;font-size: 22px;&quot;&gt;0&lt;/font&gt;" style="text;html=1;align=center;verticalAlign=middle;resizable=0;points=[];autosize=1;strokeColor=none;fillColor=none;" vertex="1" parent="1">
          <mxGeometry x="846" y="228" width="40" height="40" as="geometry" />
        </mxCell>
        <mxCell id="i1qR030Ng2jJwy4FZJ-T-254" value="&lt;span style=&quot;font-size: 22px;&quot;&gt;71&lt;/span&gt;" style="text;html=1;align=center;verticalAlign=middle;resizable=0;points=[];autosize=1;strokeColor=none;fillColor=none;" vertex="1" parent="1">
          <mxGeometry x="770" y="228" width="50" height="40" as="geometry" />
        </mxCell>
        <mxCell id="i1qR030Ng2jJwy4FZJ-T-256" value="" style="endArrow=none;html=1;rounded=0;" edge="1" parent="1">
          <mxGeometry width="50" height="50" relative="1" as="geometry">
            <mxPoint x="1135" y="661" as="sourcePoint" />
            <mxPoint x="1135" y="441" as="targetPoint" />
          </mxGeometry>
        </mxCell>
        <mxCell id="i1qR030Ng2jJwy4FZJ-T-257" value="" style="endArrow=none;html=1;rounded=0;" edge="1" parent="1">
          <mxGeometry width="50" height="50" relative="1" as="geometry">
            <mxPoint x="1135" y="441" as="sourcePoint" />
            <mxPoint x="1355" y="441" as="targetPoint" />
          </mxGeometry>
        </mxCell>
        <mxCell id="i1qR030Ng2jJwy4FZJ-T-258" value="" style="endArrow=none;html=1;rounded=0;" edge="1" parent="1">
          <mxGeometry width="50" height="50" relative="1" as="geometry">
            <mxPoint x="1355" y="661" as="sourcePoint" />
            <mxPoint x="1355" y="441" as="targetPoint" />
            <Array as="points" />
          </mxGeometry>
        </mxCell>
        <mxCell id="i1qR030Ng2jJwy4FZJ-T-259" value="" style="endArrow=none;html=1;rounded=0;" edge="1" parent="1">
          <mxGeometry width="50" height="50" relative="1" as="geometry">
            <mxPoint x="1135" y="661" as="sourcePoint" />
            <mxPoint x="1355" y="661" as="targetPoint" />
          </mxGeometry>
        </mxCell>
        <mxCell id="i1qR030Ng2jJwy4FZJ-T-260" value="" style="endArrow=none;html=1;rounded=0;" edge="1" parent="1">
          <mxGeometry width="50" height="50" relative="1" as="geometry">
            <mxPoint x="1135" y="521" as="sourcePoint" />
            <mxPoint x="1355" y="521" as="targetPoint" />
          </mxGeometry>
        </mxCell>
        <mxCell id="i1qR030Ng2jJwy4FZJ-T-261" value="" style="endArrow=none;html=1;rounded=0;" edge="1" parent="1">
          <mxGeometry width="50" height="50" relative="1" as="geometry">
            <mxPoint x="1135" y="591" as="sourcePoint" />
            <mxPoint x="1355" y="591" as="targetPoint" />
          </mxGeometry>
        </mxCell>
        <mxCell id="i1qR030Ng2jJwy4FZJ-T-262" value="" style="endArrow=none;html=1;rounded=0;" edge="1" parent="1">
          <mxGeometry width="50" height="50" relative="1" as="geometry">
            <mxPoint x="1285" y="521" as="sourcePoint" />
            <mxPoint x="1285" y="441" as="targetPoint" />
          </mxGeometry>
        </mxCell>
        <mxCell id="i1qR030Ng2jJwy4FZJ-T-263" value="" style="endArrow=none;html=1;rounded=0;" edge="1" parent="1">
          <mxGeometry width="50" height="50" relative="1" as="geometry">
            <mxPoint x="1205" y="521" as="sourcePoint" />
            <mxPoint x="1205" y="441" as="targetPoint" />
          </mxGeometry>
        </mxCell>
        <mxCell id="i1qR030Ng2jJwy4FZJ-T-264" value="" style="endArrow=none;html=1;rounded=0;" edge="1" parent="1">
          <mxGeometry width="50" height="50" relative="1" as="geometry">
            <mxPoint x="1205" y="661" as="sourcePoint" />
            <mxPoint x="1205" y="591" as="targetPoint" />
          </mxGeometry>
        </mxCell>
        <mxCell id="i1qR030Ng2jJwy4FZJ-T-265" value="" style="endArrow=none;html=1;rounded=0;" edge="1" parent="1">
          <mxGeometry width="50" height="50" relative="1" as="geometry">
            <mxPoint x="1285" y="661" as="sourcePoint" />
            <mxPoint x="1285" y="591" as="targetPoint" />
            <Array as="points">
              <mxPoint x="1285" y="621" />
            </Array>
          </mxGeometry>
        </mxCell>
        <mxCell id="i1qR030Ng2jJwy4FZJ-T-266" value="&lt;span style=&quot;font-size: 18px;&quot;&gt;I. Knowledge Transfer&lt;/span&gt;" style="text;html=1;align=center;verticalAlign=middle;resizable=0;points=[];autosize=1;strokeColor=none;fillColor=none;" vertex="1" parent="1">
          <mxGeometry x="1140" y="536" width="200" height="40" as="geometry" />
        </mxCell>
        <mxCell id="i1qR030Ng2jJwy4FZJ-T-267" value="&lt;span style=&quot;font-size: 22px;&quot;&gt;93&lt;/span&gt;" style="text;html=1;align=center;verticalAlign=middle;resizable=0;points=[];autosize=1;strokeColor=none;fillColor=none;" vertex="1" parent="1">
          <mxGeometry x="1145" y="471" width="50" height="40" as="geometry" />
        </mxCell>
        <mxCell id="i1qR030Ng2jJwy4FZJ-T-268" value="&lt;span style=&quot;font-size: 22px;&quot;&gt;7&lt;/span&gt;" style="text;html=1;align=center;verticalAlign=middle;resizable=0;points=[];autosize=1;strokeColor=none;fillColor=none;" vertex="1" parent="1">
          <mxGeometry x="1230" y="466" width="40" height="40" as="geometry" />
        </mxCell>
        <mxCell id="i1qR030Ng2jJwy4FZJ-T-269" value="&lt;font style=&quot;font-size: 22px;&quot;&gt;100&lt;/font&gt;" style="text;html=1;align=center;verticalAlign=middle;resizable=0;points=[];autosize=1;strokeColor=none;fillColor=none;" vertex="1" parent="1">
          <mxGeometry x="1285" y="474" width="60" height="40" as="geometry" />
        </mxCell>
        <mxCell id="i1qR030Ng2jJwy4FZJ-T-270" value="&lt;font style=&quot;font-size: 22px;&quot;&gt;100&lt;/font&gt;" style="text;html=1;align=center;verticalAlign=middle;resizable=0;points=[];autosize=1;strokeColor=none;fillColor=none;" vertex="1" parent="1">
          <mxGeometry x="1285" y="614" width="60" height="40" as="geometry" />
        </mxCell>
        <mxCell id="i1qR030Ng2jJwy4FZJ-T-271" value="&lt;font style=&quot;font-size: 22px;&quot;&gt;0&lt;/font&gt;" style="text;html=1;align=center;verticalAlign=middle;resizable=0;points=[];autosize=1;strokeColor=none;fillColor=none;" vertex="1" parent="1">
          <mxGeometry x="1225" y="614" width="40" height="40" as="geometry" />
        </mxCell>
        <mxCell id="i1qR030Ng2jJwy4FZJ-T-272" value="&lt;span style=&quot;font-size: 22px;&quot;&gt;93&lt;/span&gt;" style="text;html=1;align=center;verticalAlign=middle;resizable=0;points=[];autosize=1;strokeColor=none;fillColor=none;" vertex="1" parent="1">
          <mxGeometry x="1145" y="614" width="50" height="40" as="geometry" />
        </mxCell>
        <mxCell id="i1qR030Ng2jJwy4FZJ-T-291" value="" style="endArrow=none;html=1;rounded=0;" edge="1" parent="1">
          <mxGeometry width="50" height="50" relative="1" as="geometry">
            <mxPoint x="1141" y="275" as="sourcePoint" />
            <mxPoint x="1141" y="55" as="targetPoint" />
          </mxGeometry>
        </mxCell>
        <mxCell id="i1qR030Ng2jJwy4FZJ-T-292" value="" style="endArrow=none;html=1;rounded=0;" edge="1" parent="1">
          <mxGeometry width="50" height="50" relative="1" as="geometry">
            <mxPoint x="1141" y="55" as="sourcePoint" />
            <mxPoint x="1361" y="55" as="targetPoint" />
          </mxGeometry>
        </mxCell>
        <mxCell id="i1qR030Ng2jJwy4FZJ-T-293" value="" style="endArrow=none;html=1;rounded=0;" edge="1" parent="1">
          <mxGeometry width="50" height="50" relative="1" as="geometry">
            <mxPoint x="1361" y="275" as="sourcePoint" />
            <mxPoint x="1361" y="55" as="targetPoint" />
            <Array as="points" />
          </mxGeometry>
        </mxCell>
        <mxCell id="i1qR030Ng2jJwy4FZJ-T-294" value="" style="endArrow=none;html=1;rounded=0;" edge="1" parent="1">
          <mxGeometry width="50" height="50" relative="1" as="geometry">
            <mxPoint x="1141" y="275" as="sourcePoint" />
            <mxPoint x="1361" y="275" as="targetPoint" />
          </mxGeometry>
        </mxCell>
        <mxCell id="i1qR030Ng2jJwy4FZJ-T-295" value="" style="endArrow=none;html=1;rounded=0;" edge="1" parent="1">
          <mxGeometry width="50" height="50" relative="1" as="geometry">
            <mxPoint x="1141" y="135" as="sourcePoint" />
            <mxPoint x="1361" y="135" as="targetPoint" />
          </mxGeometry>
        </mxCell>
        <mxCell id="i1qR030Ng2jJwy4FZJ-T-296" value="" style="endArrow=none;html=1;rounded=0;" edge="1" parent="1">
          <mxGeometry width="50" height="50" relative="1" as="geometry">
            <mxPoint x="1141" y="205" as="sourcePoint" />
            <mxPoint x="1361" y="205" as="targetPoint" />
          </mxGeometry>
        </mxCell>
        <mxCell id="i1qR030Ng2jJwy4FZJ-T-297" value="" style="endArrow=none;html=1;rounded=0;" edge="1" parent="1">
          <mxGeometry width="50" height="50" relative="1" as="geometry">
            <mxPoint x="1291" y="135" as="sourcePoint" />
            <mxPoint x="1291" y="55" as="targetPoint" />
          </mxGeometry>
        </mxCell>
        <mxCell id="i1qR030Ng2jJwy4FZJ-T-298" value="" style="endArrow=none;html=1;rounded=0;" edge="1" parent="1">
          <mxGeometry width="50" height="50" relative="1" as="geometry">
            <mxPoint x="1211" y="135" as="sourcePoint" />
            <mxPoint x="1211" y="55" as="targetPoint" />
          </mxGeometry>
        </mxCell>
        <mxCell id="i1qR030Ng2jJwy4FZJ-T-299" value="" style="endArrow=none;html=1;rounded=0;" edge="1" parent="1">
          <mxGeometry width="50" height="50" relative="1" as="geometry">
            <mxPoint x="1211" y="275" as="sourcePoint" />
            <mxPoint x="1211" y="205" as="targetPoint" />
          </mxGeometry>
        </mxCell>
        <mxCell id="i1qR030Ng2jJwy4FZJ-T-300" value="" style="endArrow=none;html=1;rounded=0;" edge="1" parent="1">
          <mxGeometry width="50" height="50" relative="1" as="geometry">
            <mxPoint x="1291" y="275" as="sourcePoint" />
            <mxPoint x="1291" y="205" as="targetPoint" />
            <Array as="points">
              <mxPoint x="1291" y="235" />
            </Array>
          </mxGeometry>
        </mxCell>
        <mxCell id="i1qR030Ng2jJwy4FZJ-T-301" value="&lt;font style=&quot;font-size: 18px;&quot;&gt;H. Project Review&lt;/font&gt;" style="text;html=1;align=center;verticalAlign=middle;resizable=0;points=[];autosize=1;strokeColor=none;fillColor=none;" vertex="1" parent="1">
          <mxGeometry x="1161" y="150" width="170" height="40" as="geometry" />
        </mxCell>
        <mxCell id="i1qR030Ng2jJwy4FZJ-T-302" value="&lt;span style=&quot;font-size: 22px;&quot;&gt;85&lt;/span&gt;" style="text;html=1;align=center;verticalAlign=middle;resizable=0;points=[];autosize=1;strokeColor=none;fillColor=none;" vertex="1" parent="1">
          <mxGeometry x="1151" y="85" width="50" height="40" as="geometry" />
        </mxCell>
        <mxCell id="i1qR030Ng2jJwy4FZJ-T-303" value="&lt;span style=&quot;font-size: 22px;&quot;&gt;8&lt;/span&gt;" style="text;html=1;align=center;verticalAlign=middle;resizable=0;points=[];autosize=1;strokeColor=none;fillColor=none;" vertex="1" parent="1">
          <mxGeometry x="1236" y="80" width="40" height="40" as="geometry" />
        </mxCell>
        <mxCell id="i1qR030Ng2jJwy4FZJ-T-304" value="&lt;span style=&quot;font-size: 22px;&quot;&gt;93&lt;/span&gt;" style="text;html=1;align=center;verticalAlign=middle;resizable=0;points=[];autosize=1;strokeColor=none;fillColor=none;" vertex="1" parent="1">
          <mxGeometry x="1296" y="80" width="50" height="40" as="geometry" />
        </mxCell>
        <mxCell id="i1qR030Ng2jJwy4FZJ-T-305" value="&lt;span style=&quot;font-size: 22px;&quot;&gt;93&lt;/span&gt;" style="text;html=1;align=center;verticalAlign=middle;resizable=0;points=[];autosize=1;strokeColor=none;fillColor=none;" vertex="1" parent="1">
          <mxGeometry x="1296" y="228" width="50" height="40" as="geometry" />
        </mxCell>
        <mxCell id="i1qR030Ng2jJwy4FZJ-T-306" value="&lt;font style=&quot;font-size: 22px;&quot;&gt;0&lt;/font&gt;" style="text;html=1;align=center;verticalAlign=middle;resizable=0;points=[];autosize=1;strokeColor=none;fillColor=none;" vertex="1" parent="1">
          <mxGeometry x="1231" y="228" width="40" height="40" as="geometry" />
        </mxCell>
        <mxCell id="i1qR030Ng2jJwy4FZJ-T-307" value="&lt;span style=&quot;font-size: 22px;&quot;&gt;85&lt;/span&gt;" style="text;html=1;align=center;verticalAlign=middle;resizable=0;points=[];autosize=1;strokeColor=none;fillColor=none;" vertex="1" parent="1">
          <mxGeometry x="1151" y="228" width="50" height="40" as="geometry" />
        </mxCell>
        <mxCell id="i1qR030Ng2jJwy4FZJ-T-308" value="" style="endArrow=none;html=1;rounded=0;" edge="1" parent="1">
          <mxGeometry width="50" height="50" relative="1" as="geometry">
            <mxPoint x="1140" y="1059" as="sourcePoint" />
            <mxPoint x="1140" y="839" as="targetPoint" />
          </mxGeometry>
        </mxCell>
        <mxCell id="i1qR030Ng2jJwy4FZJ-T-309" value="" style="endArrow=none;html=1;rounded=0;" edge="1" parent="1">
          <mxGeometry width="50" height="50" relative="1" as="geometry">
            <mxPoint x="1140" y="839" as="sourcePoint" />
            <mxPoint x="1360" y="839" as="targetPoint" />
          </mxGeometry>
        </mxCell>
        <mxCell id="i1qR030Ng2jJwy4FZJ-T-310" value="" style="endArrow=none;html=1;rounded=0;" edge="1" parent="1">
          <mxGeometry width="50" height="50" relative="1" as="geometry">
            <mxPoint x="1360" y="1059" as="sourcePoint" />
            <mxPoint x="1360" y="839" as="targetPoint" />
            <Array as="points" />
          </mxGeometry>
        </mxCell>
        <mxCell id="i1qR030Ng2jJwy4FZJ-T-311" value="" style="endArrow=none;html=1;rounded=0;" edge="1" parent="1">
          <mxGeometry width="50" height="50" relative="1" as="geometry">
            <mxPoint x="1140" y="1059" as="sourcePoint" />
            <mxPoint x="1360" y="1059" as="targetPoint" />
          </mxGeometry>
        </mxCell>
        <mxCell id="i1qR030Ng2jJwy4FZJ-T-312" value="" style="endArrow=none;html=1;rounded=0;" edge="1" parent="1">
          <mxGeometry width="50" height="50" relative="1" as="geometry">
            <mxPoint x="1140" y="919" as="sourcePoint" />
            <mxPoint x="1360" y="919" as="targetPoint" />
          </mxGeometry>
        </mxCell>
        <mxCell id="i1qR030Ng2jJwy4FZJ-T-313" value="" style="endArrow=none;html=1;rounded=0;" edge="1" parent="1">
          <mxGeometry width="50" height="50" relative="1" as="geometry">
            <mxPoint x="1140" y="989" as="sourcePoint" />
            <mxPoint x="1360" y="989" as="targetPoint" />
          </mxGeometry>
        </mxCell>
        <mxCell id="i1qR030Ng2jJwy4FZJ-T-314" value="" style="endArrow=none;html=1;rounded=0;" edge="1" parent="1">
          <mxGeometry width="50" height="50" relative="1" as="geometry">
            <mxPoint x="1290" y="919" as="sourcePoint" />
            <mxPoint x="1290" y="839" as="targetPoint" />
          </mxGeometry>
        </mxCell>
        <mxCell id="i1qR030Ng2jJwy4FZJ-T-315" value="" style="endArrow=none;html=1;rounded=0;" edge="1" parent="1">
          <mxGeometry width="50" height="50" relative="1" as="geometry">
            <mxPoint x="1210" y="919" as="sourcePoint" />
            <mxPoint x="1210" y="839" as="targetPoint" />
          </mxGeometry>
        </mxCell>
        <mxCell id="i1qR030Ng2jJwy4FZJ-T-316" value="" style="endArrow=none;html=1;rounded=0;" edge="1" parent="1">
          <mxGeometry width="50" height="50" relative="1" as="geometry">
            <mxPoint x="1210" y="1059" as="sourcePoint" />
            <mxPoint x="1210" y="989" as="targetPoint" />
          </mxGeometry>
        </mxCell>
        <mxCell id="i1qR030Ng2jJwy4FZJ-T-317" value="" style="endArrow=none;html=1;rounded=0;" edge="1" parent="1">
          <mxGeometry width="50" height="50" relative="1" as="geometry">
            <mxPoint x="1290" y="1059" as="sourcePoint" />
            <mxPoint x="1290" y="989" as="targetPoint" />
            <Array as="points">
              <mxPoint x="1290" y="1019" />
            </Array>
          </mxGeometry>
        </mxCell>
        <mxCell id="i1qR030Ng2jJwy4FZJ-T-318" value="&lt;span style=&quot;font-size: 18px;&quot;&gt;J. Maintenance&lt;/span&gt;" style="text;html=1;align=center;verticalAlign=middle;resizable=0;points=[];autosize=1;strokeColor=none;fillColor=none;" vertex="1" parent="1">
          <mxGeometry x="1170" y="934" width="150" height="40" as="geometry" />
        </mxCell>
        <mxCell id="i1qR030Ng2jJwy4FZJ-T-319" value="&lt;span style=&quot;font-size: 22px;&quot;&gt;100&lt;/span&gt;" style="text;html=1;align=center;verticalAlign=middle;resizable=0;points=[];autosize=1;strokeColor=none;fillColor=none;" vertex="1" parent="1">
          <mxGeometry x="1145" y="869" width="60" height="40" as="geometry" />
        </mxCell>
        <mxCell id="i1qR030Ng2jJwy4FZJ-T-320" value="&lt;span style=&quot;font-size: 22px;&quot;&gt;16&lt;/span&gt;" style="text;html=1;align=center;verticalAlign=middle;resizable=0;points=[];autosize=1;strokeColor=none;fillColor=none;" vertex="1" parent="1">
          <mxGeometry x="1230" y="864" width="50" height="40" as="geometry" />
        </mxCell>
        <mxCell id="i1qR030Ng2jJwy4FZJ-T-321" value="&lt;span style=&quot;font-size: 22px;&quot;&gt;116&lt;/span&gt;" style="text;html=1;align=center;verticalAlign=middle;resizable=0;points=[];autosize=1;strokeColor=none;fillColor=none;" vertex="1" parent="1">
          <mxGeometry x="1291" y="864" width="60" height="40" as="geometry" />
        </mxCell>
        <mxCell id="i1qR030Ng2jJwy4FZJ-T-322" value="&lt;span style=&quot;font-size: 22px;&quot;&gt;116&lt;/span&gt;" style="text;html=1;align=center;verticalAlign=middle;resizable=0;points=[];autosize=1;strokeColor=none;fillColor=none;" vertex="1" parent="1">
          <mxGeometry x="1290" y="1012" width="60" height="40" as="geometry" />
        </mxCell>
        <mxCell id="i1qR030Ng2jJwy4FZJ-T-323" value="&lt;font style=&quot;font-size: 22px;&quot;&gt;0&lt;/font&gt;" style="text;html=1;align=center;verticalAlign=middle;resizable=0;points=[];autosize=1;strokeColor=none;fillColor=none;" vertex="1" parent="1">
          <mxGeometry x="1230" y="1012" width="40" height="40" as="geometry" />
        </mxCell>
        <mxCell id="i1qR030Ng2jJwy4FZJ-T-324" value="&lt;font style=&quot;font-size: 22px;&quot;&gt;100&lt;/font&gt;" style="text;html=1;align=center;verticalAlign=middle;resizable=0;points=[];autosize=1;strokeColor=none;fillColor=none;" vertex="1" parent="1">
          <mxGeometry x="1145" y="1012" width="60" height="40" as="geometry" />
        </mxCell>
        <mxCell id="i1qR030Ng2jJwy4FZJ-T-325" value="" style="endArrow=none;html=1;rounded=0;" edge="1" parent="1">
          <mxGeometry width="50" height="50" relative="1" as="geometry">
            <mxPoint x="1500" y="637" as="sourcePoint" />
            <mxPoint x="1500" y="417" as="targetPoint" />
          </mxGeometry>
        </mxCell>
        <mxCell id="i1qR030Ng2jJwy4FZJ-T-326" value="" style="endArrow=none;html=1;rounded=0;" edge="1" parent="1">
          <mxGeometry width="50" height="50" relative="1" as="geometry">
            <mxPoint x="1500" y="417" as="sourcePoint" />
            <mxPoint x="1720" y="417" as="targetPoint" />
          </mxGeometry>
        </mxCell>
        <mxCell id="i1qR030Ng2jJwy4FZJ-T-327" value="" style="endArrow=none;html=1;rounded=0;" edge="1" parent="1">
          <mxGeometry width="50" height="50" relative="1" as="geometry">
            <mxPoint x="1720" y="637" as="sourcePoint" />
            <mxPoint x="1720" y="417" as="targetPoint" />
            <Array as="points" />
          </mxGeometry>
        </mxCell>
        <mxCell id="i1qR030Ng2jJwy4FZJ-T-328" value="" style="endArrow=none;html=1;rounded=0;" edge="1" parent="1">
          <mxGeometry width="50" height="50" relative="1" as="geometry">
            <mxPoint x="1500" y="637" as="sourcePoint" />
            <mxPoint x="1720" y="637" as="targetPoint" />
          </mxGeometry>
        </mxCell>
        <mxCell id="i1qR030Ng2jJwy4FZJ-T-329" value="" style="endArrow=none;html=1;rounded=0;" edge="1" parent="1">
          <mxGeometry width="50" height="50" relative="1" as="geometry">
            <mxPoint x="1500" y="497" as="sourcePoint" />
            <mxPoint x="1720" y="497" as="targetPoint" />
          </mxGeometry>
        </mxCell>
        <mxCell id="i1qR030Ng2jJwy4FZJ-T-330" value="" style="endArrow=none;html=1;rounded=0;" edge="1" parent="1">
          <mxGeometry width="50" height="50" relative="1" as="geometry">
            <mxPoint x="1500" y="567" as="sourcePoint" />
            <mxPoint x="1720" y="567" as="targetPoint" />
          </mxGeometry>
        </mxCell>
        <mxCell id="i1qR030Ng2jJwy4FZJ-T-331" value="" style="endArrow=none;html=1;rounded=0;" edge="1" parent="1">
          <mxGeometry width="50" height="50" relative="1" as="geometry">
            <mxPoint x="1650" y="497" as="sourcePoint" />
            <mxPoint x="1650" y="417" as="targetPoint" />
          </mxGeometry>
        </mxCell>
        <mxCell id="i1qR030Ng2jJwy4FZJ-T-332" value="" style="endArrow=none;html=1;rounded=0;" edge="1" parent="1">
          <mxGeometry width="50" height="50" relative="1" as="geometry">
            <mxPoint x="1570" y="497" as="sourcePoint" />
            <mxPoint x="1570" y="417" as="targetPoint" />
          </mxGeometry>
        </mxCell>
        <mxCell id="i1qR030Ng2jJwy4FZJ-T-333" value="" style="endArrow=none;html=1;rounded=0;" edge="1" parent="1">
          <mxGeometry width="50" height="50" relative="1" as="geometry">
            <mxPoint x="1570" y="637" as="sourcePoint" />
            <mxPoint x="1570" y="567" as="targetPoint" />
          </mxGeometry>
        </mxCell>
        <mxCell id="i1qR030Ng2jJwy4FZJ-T-334" value="" style="endArrow=none;html=1;rounded=0;" edge="1" parent="1">
          <mxGeometry width="50" height="50" relative="1" as="geometry">
            <mxPoint x="1650" y="637" as="sourcePoint" />
            <mxPoint x="1650" y="567" as="targetPoint" />
            <Array as="points">
              <mxPoint x="1650" y="597" />
            </Array>
          </mxGeometry>
        </mxCell>
        <mxCell id="i1qR030Ng2jJwy4FZJ-T-335" value="&lt;font style=&quot;font-size: 18px;&quot;&gt;K. Project Closure&lt;/font&gt;" style="text;html=1;align=center;verticalAlign=middle;resizable=0;points=[];autosize=1;strokeColor=none;fillColor=none;" vertex="1" parent="1">
          <mxGeometry x="1520" y="512" width="170" height="40" as="geometry" />
        </mxCell>
        <mxCell id="i1qR030Ng2jJwy4FZJ-T-336" value="&lt;span style=&quot;font-size: 22px;&quot;&gt;116&lt;/span&gt;" style="text;html=1;align=center;verticalAlign=middle;resizable=0;points=[];autosize=1;strokeColor=none;fillColor=none;" vertex="1" parent="1">
          <mxGeometry x="1500" y="443" width="60" height="40" as="geometry" />
        </mxCell>
        <mxCell id="i1qR030Ng2jJwy4FZJ-T-337" value="&lt;span style=&quot;font-size: 22px;&quot;&gt;1&lt;/span&gt;" style="text;html=1;align=center;verticalAlign=middle;resizable=0;points=[];autosize=1;strokeColor=none;fillColor=none;" vertex="1" parent="1">
          <mxGeometry x="1595" y="442" width="40" height="40" as="geometry" />
        </mxCell>
        <mxCell id="i1qR030Ng2jJwy4FZJ-T-338" value="&lt;span style=&quot;font-size: 22px;&quot;&gt;117&lt;/span&gt;" style="text;html=1;align=center;verticalAlign=middle;resizable=0;points=[];autosize=1;strokeColor=none;fillColor=none;" vertex="1" parent="1">
          <mxGeometry x="1660" y="442" width="60" height="40" as="geometry" />
        </mxCell>
        <mxCell id="i1qR030Ng2jJwy4FZJ-T-339" value="&lt;span style=&quot;font-size: 22px;&quot;&gt;117&lt;/span&gt;" style="text;html=1;align=center;verticalAlign=middle;resizable=0;points=[];autosize=1;strokeColor=none;fillColor=none;" vertex="1" parent="1">
          <mxGeometry x="1650" y="590" width="60" height="40" as="geometry" />
        </mxCell>
        <mxCell id="i1qR030Ng2jJwy4FZJ-T-340" value="&lt;font style=&quot;font-size: 22px;&quot;&gt;0&lt;/font&gt;" style="text;html=1;align=center;verticalAlign=middle;resizable=0;points=[];autosize=1;strokeColor=none;fillColor=none;" vertex="1" parent="1">
          <mxGeometry x="1590" y="590" width="40" height="40" as="geometry" />
        </mxCell>
        <mxCell id="i1qR030Ng2jJwy4FZJ-T-341" value="&lt;span style=&quot;font-size: 22px;&quot;&gt;116&lt;/span&gt;" style="text;html=1;align=center;verticalAlign=middle;resizable=0;points=[];autosize=1;strokeColor=none;fillColor=none;" vertex="1" parent="1">
          <mxGeometry x="1510" y="585" width="60" height="40" as="geometry" />
        </mxCell>
        <mxCell id="i1qR030Ng2jJwy4FZJ-T-352" value="" style="endArrow=classic;html=1;rounded=0;entryX=-0.004;entryY=0.93;entryDx=0;entryDy=0;entryPerimeter=0;" edge="1" parent="1" target="i1qR030Ng2jJwy4FZJ-T-145">
          <mxGeometry width="50" height="50" relative="1" as="geometry">
            <mxPoint x="140" y="400" as="sourcePoint" />
            <mxPoint x="280" y="350" as="targetPoint" />
          </mxGeometry>
        </mxCell>
        <mxCell id="i1qR030Ng2jJwy4FZJ-T-353" value="" style="endArrow=classic;html=1;rounded=0;exitX=0.483;exitY=1.18;exitDx=0;exitDy=0;exitPerimeter=0;" edge="1" parent="1" source="i1qR030Ng2jJwy4FZJ-T-150">
          <mxGeometry width="50" height="50" relative="1" as="geometry">
            <mxPoint x="460" y="340" as="sourcePoint" />
            <mxPoint x="470" y="450" as="targetPoint" />
          </mxGeometry>
        </mxCell>
        <mxCell id="i1qR030Ng2jJwy4FZJ-T-354" value="" style="endArrow=classic;html=1;rounded=0;exitX=0.475;exitY=1.205;exitDx=0;exitDy=0;exitPerimeter=0;" edge="1" parent="1" source="i1qR030Ng2jJwy4FZJ-T-185">
          <mxGeometry width="50" height="50" relative="1" as="geometry">
            <mxPoint x="480" y="730" as="sourcePoint" />
            <mxPoint x="470" y="860" as="targetPoint" />
          </mxGeometry>
        </mxCell>
        <mxCell id="i1qR030Ng2jJwy4FZJ-T-355" value="" style="endArrow=classic;html=1;rounded=0;" edge="1" parent="1">
          <mxGeometry width="50" height="50" relative="1" as="geometry">
            <mxPoint x="570" y="970" as="sourcePoint" />
            <mxPoint x="750" y="970" as="targetPoint" />
          </mxGeometry>
        </mxCell>
        <mxCell id="i1qR030Ng2jJwy4FZJ-T-356" value="" style="endArrow=classic;html=1;rounded=0;entryX=0.45;entryY=1.325;entryDx=0;entryDy=0;entryPerimeter=0;" edge="1" parent="1" target="i1qR030Ng2jJwy4FZJ-T-236">
          <mxGeometry width="50" height="50" relative="1" as="geometry">
            <mxPoint x="860" y="850" as="sourcePoint" />
            <mxPoint x="912" y="800" as="targetPoint" />
          </mxGeometry>
        </mxCell>
        <mxCell id="i1qR030Ng2jJwy4FZJ-T-357" value="" style="endArrow=classic;html=1;rounded=0;" edge="1" parent="1">
          <mxGeometry width="50" height="50" relative="1" as="geometry">
            <mxPoint x="870" y="450" as="sourcePoint" />
            <mxPoint x="870" y="272" as="targetPoint" />
          </mxGeometry>
        </mxCell>
        <mxCell id="i1qR030Ng2jJwy4FZJ-T-358" value="" style="endArrow=classic;html=1;rounded=0;" edge="1" parent="1">
          <mxGeometry width="50" height="50" relative="1" as="geometry">
            <mxPoint x="980" y="178" as="sourcePoint" />
            <mxPoint x="1140" y="178" as="targetPoint" />
          </mxGeometry>
        </mxCell>
        <mxCell id="i1qR030Ng2jJwy4FZJ-T-359" value="" style="endArrow=classic;html=1;rounded=0;exitX=0.525;exitY=1.2;exitDx=0;exitDy=0;exitPerimeter=0;" edge="1" parent="1" source="i1qR030Ng2jJwy4FZJ-T-306">
          <mxGeometry width="50" height="50" relative="1" as="geometry">
            <mxPoint x="1215" y="350" as="sourcePoint" />
            <mxPoint x="1252" y="440" as="targetPoint" />
          </mxGeometry>
        </mxCell>
        <mxCell id="i1qR030Ng2jJwy4FZJ-T-360" value="" style="endArrow=classic;html=1;rounded=0;exitX=0.395;exitY=1.31;exitDx=0;exitDy=0;exitPerimeter=0;" edge="1" parent="1" source="i1qR030Ng2jJwy4FZJ-T-271">
          <mxGeometry width="50" height="50" relative="1" as="geometry">
            <mxPoint x="1190" y="750" as="sourcePoint" />
            <mxPoint x="1245" y="840" as="targetPoint" />
          </mxGeometry>
        </mxCell>
        <mxCell id="i1qR030Ng2jJwy4FZJ-T-361" value="" style="endArrow=classic;html=1;rounded=0;entryX=0.35;entryY=1.39;entryDx=0;entryDy=0;entryPerimeter=0;" edge="1" parent="1" target="i1qR030Ng2jJwy4FZJ-T-340">
          <mxGeometry width="50" height="50" relative="1" as="geometry">
            <mxPoint x="1360" y="959" as="sourcePoint" />
            <mxPoint x="1410" y="909" as="targetPoint" />
          </mxGeometry>
        </mxCell>
      </root>
    </mxGraphModel>
  </diagram>
</mxfile>
